<svg width="96" height="96" viewBox="0 0 96 96" fill="none" xmlns="http://www.w3.org/2000/svg">
<path d="M48.288 96C43.36 96 39.072 94.8907 35.424 92.672C31.776 90.4533 28.96 87.3387 26.976 83.328C24.992 79.3173 24 74.5813 24 69.12H38.4C38.4 72.2773 39.296 74.7947 41.088 76.672C42.944 78.464 45.44 79.36 48.576 79.36C51.584 79.36 53.92 78.464 55.584 76.672C57.312 74.88 58.176 72.4053 58.176 69.248C58.176 66.5173 57.536 64.1707 56.256 62.208C54.976 60.2453 53.184 58.9227 50.88 58.24L43.776 56.064C37.824 54.1867 33.184 50.7307 29.856 45.696C26.592 40.576 24.96 34.3467 24.96 27.008C24.96 21.5467 25.888 16.8107 27.744 12.8C29.664 8.704 32.352 5.54667 35.808 3.328C39.264 1.10933 43.36 0 48.096 0C55.264 0 60.928 2.38933 65.088 7.168C69.312 11.8613 71.424 18.2187 71.424 26.24H57.024C57.024 23.2533 56.224 20.9067 54.624 19.2C53.088 17.4933 50.848 16.64 47.904 16.64C45.152 16.64 43.04 17.4933 41.568 19.2C40.096 20.8213 39.36 23.168 39.36 26.24C39.36 28.9707 39.936 31.3173 41.088 33.28C42.304 35.1573 44 36.4373 46.176 37.12L53.664 39.424C59.872 41.3013 64.576 44.7147 67.776 49.664C70.976 54.528 72.576 60.7573 72.576 68.352C72.576 73.8133 71.552 78.6347 69.504 82.816C67.52 86.9973 64.704 90.24 61.056 92.544C57.472 94.848 53.216 96 48.288 96Z" fill="#FDFFA4"/>
<path d="M-1.06166e-06 45.888C-8.46253e-07 40.96 1.10934 36.672 3.328 33.024C5.54667 29.376 8.66134 26.56 12.672 24.576C16.6827 22.592 21.4187 21.6 26.88 21.6L26.88 36C23.7227 36 21.2053 36.896 19.328 38.688C17.536 40.544 16.64 43.04 16.64 46.176C16.64 49.184 17.536 51.52 19.328 53.184C21.12 54.912 23.5947 55.776 26.752 55.776C29.4827 55.776 31.8293 55.136 33.792 53.856C35.7547 52.576 37.0773 50.784 37.76 48.48L39.936 41.376C41.8133 35.424 45.2693 30.784 50.304 27.456C55.424 24.192 61.6533 22.56 68.992 22.56C74.4533 22.56 79.1893 23.488 83.2 25.344C87.296 27.264 90.4533 29.952 92.672 33.408C94.8907 36.864 96 40.96 96 45.696C96 52.864 93.6107 58.528 88.832 62.688C84.1387 66.912 77.7813 69.024 69.76 69.024L69.76 54.624C72.7467 54.624 75.0933 53.824 76.8 52.224C78.5067 50.688 79.36 48.448 79.36 45.504C79.36 42.752 78.5067 40.64 76.8 39.168C75.1787 37.696 72.832 36.96 69.76 36.96C67.0293 36.96 64.6827 37.536 62.72 38.688C60.8427 39.904 59.5627 41.6 58.88 43.776L56.576 51.264C54.6987 57.472 51.2853 62.176 46.336 65.376C41.472 68.576 35.2427 70.176 27.648 70.176C22.1867 70.176 17.3653 69.152 13.184 67.104C9.00268 65.12 5.76 62.304 3.45601 58.656C1.15201 55.072 -1.27707e-06 50.816 -1.06166e-06 45.888Z" fill="#FDFFA4"/>
</svg>
